<?xml version="1.0" encoding="UTF-8"?>
<svg xmlns="http://www.w3.org/2000/svg" xmlns:xlink="http://www.w3.org/1999/xlink" width="512" height="512" viewBox="0 0 58 58" version="1.1"><!-- Generator: Sketch 51.3 (57544) - http://www.bohemiancoding.com/sketch --><title>016 - Chakra</title><desc>Created with Sketch.</desc><defs/><g id="Page-1" stroke="none" stroke-width="1" fill="none" fill-rule="evenodd"><g id="016---Chakra" fill-rule="nonzero"><path d="M33.67,14.75 C33.1458632,14.5717369 32.6115862,14.4248107 32.07,14.31 C30.0408347,13.8966664 27.9491653,13.8966664 25.92,14.31 C25.8061911,12.1586506 24.9388542,10.1159836 23.47,8.54 C23.7545929,7.576511 24.2813482,6.70202832 25,6 C28.15,2.85 28.82,0.94 28.96,0.27 C29.1,0.94 29.77,2.85 32.92,6 C33.6310408,6.70015917 34.1568161,7.56614197 34.45,8.52 C34.9290993,10.6238569 34.6529892,12.8291975 33.67,14.75 Z" id="Shape" fill="#FB7B76"/><path d="M25.92,14.31 C25.3784138,14.4248107 24.8441368,14.5717369 24.32,14.75 C23.3388403,15.0710488 22.3937512,15.4933227 21.5,16.01 C20.6047574,16.5353155 19.7639562,17.1483299 18.99,17.84 C17.828623,16.020834 16.0553002,14.6766553 13.99,14.05 C13.7524337,13.0720112 13.7696487,12.049438 14.04,11.08 C15.18,6.8 14.82,4.82 14.6,4.15 C15.06,4.66 16.6,5.97 20.89,7.12 C21.8560013,7.36815386 22.7435311,7.85663925 23.47,8.54 C24.9388542,10.1159836 25.8061911,12.1586506 25.92,14.31 Z" id="Shape" fill="#FF5364"/><path d="M18.99,17.84 C18.5762107,18.2021404 18.1885753,18.5931175 17.83,19.01 L17.82,19.01 C16.4348011,20.5483393 15.3888067,22.3609419 14.75,24.33 C12.8291975,23.3470108 10.6238569,23.0709007 8.52,23.55 C7.82664503,22.8238432 7.33088481,21.9321634 7.08,20.96 C5.93,16.67 4.62,15.13 4.11,14.67 C4.78,14.89 6.76,15.25 11.04,14.11 C12.002559,13.8416811 13.0173268,13.8210418 13.99,14.05 C16.0553002,14.6766553 17.828623,16.020834 18.99,17.84 Z" id="Shape" fill="#FB7B76"/><path d="M14.31,25.93 C13.8966664,27.9591653 13.8966664,30.0508347 14.31,32.08 C12.1586506,32.1938089 10.1159836,33.0611458 8.54,34.53 C7.576511,34.2454071 6.70202832,33.7186518 6,33 C2.85,29.85 0.94,29.18 0.27,29.04 C0.94,28.9 2.85,28.23 6,25.08 C6.70015917,24.3689592 7.56614197,23.8431839 8.52,23.55 C10.6238569,23.0709007 12.8291975,23.3470108 14.75,24.33 C14.5717369,24.8541368 14.4248107,25.3884138 14.31,25.93 Z" id="Shape" fill="#FF5364"/><path d="M17.84,39.01 C16.020834,40.171377 14.6766553,41.9446998 14.05,44.01 C13.0720112,44.2475663 12.049438,44.2303513 11.08,43.96 C6.8,42.82 4.82,43.18 4.15,43.4 C4.66,42.94 5.97,41.4 7.12,37.11 C7.36815386,36.1439987 7.85663925,35.2564689 8.54,34.53 C10.1159836,33.0611458 12.1586506,32.1938089 14.31,32.08 C14.4248107,32.6215862 14.5717369,33.1558632 14.75,33.68 C15.0667822,34.6628004 15.4892539,35.6083324 16.01,36.5 C16.5285408,37.3996654 17.142047,38.2411411 17.84,39.01 Z" id="Shape" fill="#FB7B76"/><path d="M23.55,49.48 C22.8238432,50.173355 21.9321634,50.6691152 20.96,50.92 C16.67,52.07 15.13,53.38 14.67,53.89 C14.89,53.22 15.25,51.24 14.11,46.96 C13.8416811,45.997441 13.8210418,44.9826732 14.05,44.01 C14.6766553,41.9446998 16.020834,40.171377 17.84,39.01 C18.2021404,39.4237893 18.5931175,39.8114247 19.01,40.17 L19.01,40.18 C20.5483393,41.5651989 22.3609419,42.6111933 24.33,43.25 C23.3470108,45.1708025 23.0709007,47.3761431 23.55,49.48 Z" id="Shape" fill="#FF5364"/><path d="M34.53,49.46 C34.2454071,50.423489 33.7186518,51.2979717 33,52 C29.85,55.15 29.18,57.06 29.04,57.73 C28.9,57.06 28.23,55.15 25.08,52 C24.3689592,51.2998408 23.8431839,50.433858 23.55,49.48 C23.0709007,47.3761431 23.3470108,45.1708025 24.33,43.25 C24.8541368,43.4282631 25.3884138,43.5751893 25.93,43.69 C27.9591653,44.1033336 30.0508347,44.1033336 32.08,43.69 C32.1938089,45.8413494 33.0611458,47.8840164 34.53,49.46 Z" id="Shape" fill="#FB7B76"/><path d="M43.96,46.92 C42.82,51.2 43.18,53.18 43.4,53.85 C42.94,53.34 41.4,52.03 37.11,50.88 C36.1439987,50.6318461 35.2564689,50.1433607 34.53,49.46 C33.0611458,47.8840164 32.1938089,45.8413494 32.08,43.69 C32.6215862,43.5751893 33.1558632,43.4282631 33.68,43.25 C34.6611597,42.9289512 35.6062488,42.5066773 36.5,41.99 C37.3952426,41.4646845 38.2360438,40.8516701 39.01,40.16 C40.171377,41.979166 41.9446998,43.3233447 44.01,43.95 C44.2475663,44.9279888 44.2303513,45.950562 43.96,46.92 Z" id="Shape" fill="#FF5364"/><path d="M53.89,43.33 C53.22,43.11 51.24,42.75 46.96,43.89 C45.997441,44.1583189 44.9826732,44.1789582 44.01,43.95 C41.9446998,43.3233447 40.171377,41.979166 39.01,40.16 C39.4237893,39.7978596 39.8114247,39.4068825 40.17,38.99 L40.18,38.99 C40.8682224,38.2251533 41.4748344,37.390643 41.99,36.5 C42.5067331,35.6027764 42.9289932,34.6543668 43.25,33.67 C45.1708025,34.6529892 47.3761431,34.9290993 49.48,34.45 C50.173355,35.1761568 50.6691152,36.0678366 50.92,37.04 C52.07,41.33 53.38,42.87 53.89,43.33 Z" id="Shape" fill="#FB7B76"/><path d="M57.73,28.96 C57.06,29.1 55.15,29.77 52,32.92 C51.2998408,33.6310408 50.433858,34.1568161 49.48,34.45 C47.3761431,34.9290993 45.1708025,34.6529892 43.25,33.67 C43.4282631,33.1458632 43.5751893,32.6115862 43.69,32.07 C44.1033336,30.0408347 44.1033336,27.9491653 43.69,25.92 C45.8413494,25.8061911 47.8840164,24.9388542 49.46,23.47 C50.423489,23.7545929 51.2979717,24.2813482 52,25 C55.15,28.15 57.06,28.82 57.73,28.96 Z" id="Shape" fill="#FF5364"/><path d="M53.85,14.6 C53.34,15.06 52.03,16.6 50.88,20.89 C50.6318461,21.8560013 50.1433607,22.7435311 49.46,23.47 C47.8840164,24.9388542 45.8413494,25.8061911 43.69,25.92 C43.5751893,25.3784138 43.4282631,24.8441368 43.25,24.32 C42.9289512,23.3388403 42.5066773,22.3937512 41.99,21.5 C41.4646845,20.6047574 40.8516701,19.7639562 40.16,18.99 C41.979166,17.828623 43.3233447,16.0553002 43.95,13.99 C44.9279888,13.7524337 45.950562,13.7696487 46.92,14.04 C51.2,15.18 53.18,14.82 53.85,14.6 Z" id="Shape" fill="#FB7B76"/><path d="M43.95,13.99 C43.3233447,16.0553002 41.979166,17.828623 40.16,18.99 C39.7978596,18.5762107 39.4068825,18.1885753 38.99,17.83 L38.99,17.82 C38.2251533,17.1317776 37.390643,16.5251656 36.5,16.01 C35.6027764,15.4932669 34.6543668,15.0710068 33.67,14.75 C34.6529892,12.8291975 34.9290993,10.6238569 34.45,8.52 C35.1761568,7.82664503 36.0678366,7.33088481 37.04,7.08 C41.33,5.93 42.87,4.62 43.33,4.11 C43.11,4.78 42.75,6.76 43.89,11.04 C44.1583189,12.002559 44.1789582,13.0173268 43.95,13.99 Z" id="Shape" fill="#FF5364"/><path d="M29,15 C28.4477153,15 28,14.5522847 28,14 L28,8 C28,7.44771525 28.4477153,7 29,7 C29.5522847,7 30,7.44771525 30,8 L30,14 C30,14.5522847 29.5522847,15 29,15 Z" id="Shape" fill="#DF4D60"/><path d="M21.501,17.01 C21.1433148,17.01042 20.8126425,16.8197648 20.6338,16.51 L17.6338,11.3137 C17.4551672,11.0042365 17.4552005,10.6229811 17.6338873,10.3135488 C17.8125741,10.0041165 18.1427677,9.81351761 18.5000873,9.8135488 C18.8574069,9.81357998 19.1875672,10.0042365 19.3662,10.3137 L22.3662,15.51 C22.5447592,15.8192734 22.544838,16.2002956 22.3664065,16.5096428 C22.1879751,16.81899 21.8581181,17.0097053 21.501,17.01 Z" id="Shape" fill="#DF4D60"/><path d="M16.0088,22.5 C15.8335848,22.5001321 15.6614441,22.453975 15.5098,22.3662 L10.3135,19.3662 C10.0040365,19.1875672 9.81337998,18.8574069 9.8133488,18.5000873 C9.81331761,18.1427677 10.0039165,17.8125741 10.3133488,17.6338873 C10.6227811,17.4552005 11.0040365,17.4551672 11.3135,17.6338 L16.5098,20.6338 C16.9021139,20.860119 17.0933374,21.3218554 16.9759064,21.7592801 C16.8584754,22.1967049 16.4617129,22.5005906 16.0088,22.5 Z" id="Shape" fill="#DF4D60"/><path d="M14,30 L8,30 C7.44771525,30 7,29.5522847 7,29 C7,28.4477153 7.44771525,28 8,28 L14,28 C14.5522847,28 15,28.4477153 15,29 C15,29.5522847 14.5522847,30 14,30 Z" id="Shape" fill="#DF4D60"/><path d="M10.8145,40.5 C10.3615871,40.5005906 9.96482465,40.1967049 9.84739361,39.7592801 C9.72996257,39.3218554 9.9211861,38.860119 10.3135,38.6338 L15.5098,35.6338 C15.988189,35.3576577 16.5998576,35.521611 16.876,36 C17.1521423,36.4783891 16.988189,37.0900576 16.5098,37.3662 L11.3135,40.3662 C11.1618559,40.453975 10.9897152,40.5001321 10.8145,40.5 Z" id="Shape" fill="#DF4D60"/><path d="M18.499,48.1865 C18.1418819,48.1862053 17.8120249,47.99549 17.6335935,47.6861428 C17.455162,47.3767956 17.4552408,46.9957734 17.6338,46.6865 L20.6338,41.4902 C20.8124328,41.1807365 21.1425931,40.99008 21.4999127,40.9900488 C21.8572323,40.9900176 22.1874259,41.1806165 22.3661127,41.4900488 C22.5447995,41.7994811 22.5448328,42.1807365 22.3662,42.4902 L19.3662,47.6865 C19.1873575,47.9962648 18.8566852,48.18692 18.499,48.1865 Z" id="Shape" fill="#DF4D60"/><path d="M29,51 C28.4477153,51 28,50.5522847 28,50 L28,44 C28,43.4477153 28.4477153,43 29,43 C29.5522847,43 30,43.4477153 30,44 L30,50 C30,50.5522847 29.5522847,51 29,51 Z" id="Shape" fill="#DF4D60"/><path d="M39.501,48.1865 C39.1433148,48.18692 38.8126425,47.9962648 38.6338,47.6865 L35.6338,42.4902 C35.4551672,42.1807365 35.4552004,41.799481 35.6338873,41.4900488 C35.8125741,41.1806165 36.1427677,40.9900176 36.5000873,40.9900487 C36.8574069,40.9900799 37.1875672,41.1807365 37.3662,41.4902 L40.3662,46.6865 C40.5447592,46.9957734 40.544838,47.3767956 40.3664065,47.6861428 C40.1879751,47.99549 39.8581181,48.1862053 39.501,48.1865 Z" id="Shape" fill="#DF4D60"/><path d="M47.1855,40.5 C47.010286,40.5001227 46.8381478,40.4539661 46.6865,40.3662 L41.4902,37.3662 C41.011811,37.0900576 40.8478577,36.4783891 41.124,36 C41.4001424,35.521611 42.011811,35.3576577 42.4902,35.6338 L47.6865,38.6338 C48.0788139,38.860119 48.2700374,39.3218554 48.1526064,39.7592801 C48.0351754,40.1967049 47.6384129,40.5005906 47.1855,40.5 Z" id="Shape" fill="#DF4D60"/><path d="M50,30 L44,30 C43.4477153,30 43,29.5522847 43,29 C43,28.4477153 43.4477153,28 44,28 L50,28 C50.5522847,28 51,28.4477153 51,29 C51,29.5522847 50.5522847,30 50,30 Z" id="Shape" fill="#DF4D60"/><path d="M41.9912,22.5 C41.5382871,22.5005906 41.1415246,22.1967049 41.0240936,21.7592801 C40.9066626,21.3218554 41.0978861,20.860119 41.4902,20.6338 L46.6865,17.6338 C47.1648891,17.3576576 47.7765576,17.5216109 48.0527,18 C48.3288424,18.4783891 48.1648891,19.0900576 47.6865,19.3662 L42.4902,22.3662 C42.3385559,22.453975 42.1664152,22.5001321 41.9912,22.5 Z" id="Shape" fill="#DF4D60"/><path d="M36.499,17.01 C36.1418819,17.0097053 35.8120249,16.81899 35.6335935,16.5096428 C35.455162,16.2002956 35.4552408,15.8192734 35.6338,15.51 L38.6338,10.3137 C38.9099424,9.83531095 39.5216109,9.67135763 40,9.9475 C40.4783891,10.2236424 40.6423424,10.8353109 40.3662,11.3137 L37.3662,16.51 C37.1873575,16.8197648 36.8566852,17.01042 36.499,17.01 Z" id="Shape" fill="#DF4D60"/><circle id="Oval" fill="#F3D55B" cx="22" cy="3" r="1"/><circle id="Oval" fill="#F3D55B" cx="36" cy="3" r="1"/><circle id="Oval" fill="#F3D55B" cx="48" cy="10" r="1"/><circle id="Oval" fill="#F3D55B" cx="55" cy="22" r="1"/><circle id="Oval" fill="#F3D55B" cx="55" cy="36" r="1"/><circle id="Oval" fill="#F3D55B" cx="48" cy="48" r="1"/><circle id="Oval" fill="#F3D55B" cx="36" cy="55" r="1"/><circle id="Oval" fill="#F3D55B" cx="22" cy="55" r="1"/><circle id="Oval" fill="#F3D55B" cx="10" cy="48" r="1"/><circle id="Oval" fill="#F3D55B" cx="3" cy="36" r="1"/><circle id="Oval" fill="#F3D55B" cx="3" cy="22" r="1"/><circle id="Oval" fill="#F3D55B" cx="10" cy="10" r="1"/><path d="M44,29 C43.9989221,30.0310913 43.8950755,31.0595079 43.69,32.07 C43.5751893,32.6115862 43.4282631,33.1458632 43.25,33.67 C42.9289932,34.6543668 42.5067331,35.6027764 41.99,36.5 C41.4748344,37.390643 40.8682224,38.2251533 40.18,38.99 L40.17,38.99 C39.8114247,39.4068825 39.4237893,39.7978596 39.01,40.16 C38.2360438,40.8516701 37.3952426,41.4646845 36.5,41.99 C35.6062488,42.5066773 34.6611597,42.9289512 33.68,43.25 C33.1558632,43.4282631 32.6215862,43.5751893 32.08,43.69 C30.0508347,44.1033336 27.9591653,44.1033336 25.93,43.69 C25.3884138,43.5751893 24.8541368,43.4282631 24.33,43.25 C22.3609419,42.6111933 20.5483393,41.5651989 19.01,40.18 L19.01,40.17 C18.5931175,39.8114247 18.2021404,39.4237893 17.84,39.01 C17.142047,38.2411411 16.5285408,37.3996654 16.01,36.5 C15.4892539,35.6083324 15.0667822,34.6628004 14.75,33.68 C14.5717369,33.1558632 14.4248107,32.6215862 14.31,32.08 C13.8966664,30.0508347 13.8966664,27.9591653 14.31,25.93 C14.4248107,25.3884138 14.5717369,24.8541368 14.75,24.33 C15.3888067,22.3609419 16.4348011,20.5483393 17.82,19.01 L17.83,19.01 C18.1885753,18.5931175 18.5762107,18.2021404 18.99,17.84 C19.7639562,17.1483299 20.6047574,16.5353155 21.5,16.01 C22.3937512,15.4933227 23.3388403,15.0710488 24.32,14.75 C24.8441368,14.5717369 25.3784138,14.4248107 25.92,14.31 C27.9491653,13.8966664 30.0408347,13.8966664 32.07,14.31 C32.6115862,14.4248107 33.1458632,14.5717369 33.67,14.75 C34.6543668,15.0710068 35.6027764,15.4932669 36.5,16.01 C37.390643,16.5251656 38.2251533,17.1317776 38.99,17.82 L38.99,17.83 C39.4068825,18.1885753 39.7978596,18.5762107 40.16,18.99 C40.8516701,19.7639562 41.4646845,20.6047574 41.99,21.5 C42.5066773,22.3937512 42.9289512,23.3388403 43.25,24.32 C43.4282631,24.8441368 43.5751893,25.3784138 43.69,25.92 C43.8955752,26.9337919 43.9994235,27.9655751 44,29 Z" id="Shape" fill="#F3D55B"/><path d="M29,23 C28.4477153,23 28,22.5522847 28,22 L28,18 C28,17.4477153 28.4477153,17 29,17 C29.5522847,17 30,17.4477153 30,18 L30,22 C30,22.5522847 29.5522847,23 29,23 Z" id="Shape" fill="#F0C419"/><path d="M25.501,23.938 C25.1433148,23.93842 24.8126425,23.7477648 24.6338,23.438 L22.6338,19.9736 C22.4551672,19.6641365 22.4552005,19.2828811 22.6338873,18.9734488 C22.8125741,18.6640165 23.1427677,18.4734176 23.5000873,18.4734488 C23.8574069,18.47348 24.1875672,18.6641365 24.3662,18.9736 L26.3662,22.438 C26.5447592,22.7472734 26.544838,23.1282956 26.3664065,23.4376428 C26.1879751,23.74699 25.8581181,23.9377053 25.501,23.938 Z" id="Shape" fill="#F0C419"/><path d="M22.9365,26.5 C22.7612848,26.5001321 22.5891441,26.453975 22.4375,26.3662 L18.9736,24.3662 C18.4952109,24.0900576 18.3312576,23.4783891 18.6074,23 C18.8835424,22.5216109 19.4952109,22.3576576 19.9736,22.6338 L23.4375,24.6338 C23.8298139,24.860119 24.0210374,25.3218554 23.9036064,25.7592801 C23.7861754,26.1967049 23.3894129,26.5005906 22.9365,26.5 Z" id="Shape" fill="#F0C419"/><path d="M22,30 L18,30 C17.4477153,30 17,29.5522847 17,29 C17,28.4477153 17.4477153,28 18,28 L22,28 C22.5522847,28 23,28.4477153 23,29 C23,29.5522847 22.5522847,30 22,30 Z" id="Shape" fill="#F0C419"/><path d="M19.4746,35.5 C19.0216871,35.5005906 18.6249246,35.1967049 18.5074936,34.7592801 C18.3900626,34.3218554 18.5812861,33.860119 18.9736,33.6338 L22.4375,31.6338 C22.7469635,31.4551672 23.128219,31.4552004 23.4376512,31.6338873 C23.7470835,31.8125741 23.9376825,32.1427677 23.9376513,32.5000873 C23.9376201,32.8574069 23.7469635,33.1875672 23.4375,33.3662 L19.9736,35.3662 C19.8219559,35.453975 19.6498152,35.5001321 19.4746,35.5 Z" id="Shape" fill="#F0C419"/><path d="M23.499,39.5264 C23.1418819,39.5261053 22.8120249,39.33539 22.6335935,39.0260428 C22.455162,38.7166956 22.4552408,38.3356734 22.6338,38.0264 L24.6338,34.562 C24.8124328,34.2525365 25.1425931,34.06188 25.4999127,34.0618488 C25.8572323,34.0618176 26.1874259,34.2524165 26.3661127,34.5618488 C26.5447995,34.8712811 26.5448328,35.2525365 26.3662,35.562 L24.3662,39.0264 C24.1873575,39.3361648 23.8566852,39.52682 23.499,39.5264 Z" id="Shape" fill="#F0C419"/><path d="M29,41 C28.4477153,41 28,40.5522847 28,40 L28,36 C28,35.4477153 28.4477153,35 29,35 C29.5522847,35 30,35.4477153 30,36 L30,40 C30,40.5522847 29.5522847,41 29,41 Z" id="Shape" fill="#F0C419"/><path d="M34.501,39.5264 C34.1433148,39.52682 33.8126425,39.3361648 33.6338,39.0264 L31.6338,35.562 C31.4551672,35.2525365 31.4552004,34.871281 31.6338873,34.5618488 C31.8125741,34.2524165 32.1427677,34.0618176 32.5000873,34.0618487 C32.8574069,34.0618799 33.1875672,34.2525365 33.3662,34.562 L35.3662,38.0264 C35.5447592,38.3356734 35.544838,38.7166956 35.3664065,39.0260428 C35.1879751,39.33539 34.8581181,39.5261053 34.501,39.5264 Z" id="Shape" fill="#F0C419"/><path d="M38.5254,35.5 C38.3501848,35.5001321 38.1780441,35.453975 38.0264,35.3662 L34.5625,33.3662 C34.084111,33.0900576 33.9201577,32.4783891 34.1963,32 C34.4724424,31.521611 35.084111,31.3576577 35.5625,31.6338 L39.0264,33.6338 C39.4187139,33.860119 39.6099374,34.3218554 39.4925064,34.7592801 C39.3750754,35.1967049 38.9783129,35.5005906 38.5254,35.5 Z" id="Shape" fill="#F0C419"/><path d="M40,30 L36,30 C35.4477153,30 35,29.5522847 35,29 C35,28.4477153 35.4477153,28 36,28 L40,28 C40.5522847,28 41,28.4477153 41,29 C41,29.5522847 40.5522847,30 40,30 Z" id="Shape" fill="#F0C419"/><path d="M35.0635,26.5 C34.6105871,26.5005906 34.2138246,26.1967049 34.0963936,25.7592801 C33.9789626,25.3218554 34.1701861,24.860119 34.5625,24.6338 L38.0264,22.6338 C38.5047891,22.3576576 39.1164576,22.5216109 39.3926,23 C39.6687424,23.4783891 39.5047891,24.0900576 39.0264,24.3662 L35.5625,26.3662 C35.4108559,26.453975 35.2387152,26.5001321 35.0635,26.5 Z" id="Shape" fill="#F0C419"/><path d="M32.499,23.938 C32.1418819,23.9377053 31.8120249,23.74699 31.6335935,23.4376428 C31.455162,23.1282956 31.4552408,22.7472734 31.6338,22.438 L33.6338,18.9736 C33.9099424,18.495211 34.5216109,18.3312577 35,18.6074 C35.478389,18.8835424 35.6423423,19.495211 35.3662,19.9736 L33.3662,23.438 C33.1873575,23.7477648 32.8566852,23.93842 32.499,23.938 Z" id="Shape" fill="#F0C419"/><circle id="Oval" fill="#FF5364" cx="29" cy="29" r="7"/><path d="M29,33 C28.4477153,33 28,32.5522847 28,32 L28,26 C28,25.4477153 28.4477153,25 29,25 C29.5522847,25 30,25.4477153 30,26 L30,32 C30,32.5522847 29.5522847,33 29,33 Z" id="Shape" fill="#F3D55B"/><path d="M32,30 L26,30 C25.4477153,30 25,29.5522847 25,29 C25,28.4477153 25.4477153,28 26,28 L32,28 C32.5522847,28 33,28.4477153 33,29 C33,29.5522847 32.5522847,30 32,30 Z" id="Shape" fill="#F3D55B"/><path d="M27,32 C26.5956041,31.9999137 26.2310659,31.7562725 26.076322,31.3826546 C25.9215781,31.0090366 26.0070921,30.5789943 26.293,30.293 L30.293,26.293 C30.6853789,25.9140278 31.3090848,25.9194476 31.6948186,26.3051814 C32.0805524,26.6909152 32.0859722,27.3146211 31.707,27.707 L27.707,31.707 C27.5197135,31.8948577 27.2652671,32.0003072 27,32 Z" id="Shape" fill="#F3D55B"/><path d="M31,32 C30.7347329,32.0003072 30.4802865,31.8948577 30.293,31.707 L26.293,27.707 C25.9140278,27.3146211 25.9194476,26.6909152 26.3051814,26.3051814 C26.6909152,25.9194476 27.3146211,25.9140278 27.707,26.293 L31.707,30.293 C31.9929079,30.5789943 32.0784219,31.0090366 31.923678,31.3826546 C31.7689341,31.7562725 31.4043959,31.9999137 31,32 Z" id="Shape" fill="#F3D55B"/></g></g></svg>
